<?xml version="1.0" encoding="iso-8859-1"?>
<!-- Generator: Adobe Illustrator 16.0.0, SVG Export Plug-In . SVG Version: 6.00 Build 0)  -->
<!DOCTYPE svg PUBLIC "-//W3C//DTD SVG 1.1//EN" "http://www.w3.org/Graphics/SVG/1.1/DTD/svg11.dtd">
<svg class="svg" version="1.1" id="Capa_1" xmlns="http://www.w3.org/2000/svg" xmlns:xlink="http://www.w3.org/1999/xlink" x="0px" y="0px"
	 width="576.963px" height="576.963px" viewBox="0 0 576.963 576.963" style="enable-background:new 0 0 576.963 576.963;"
	 xml:space="preserve">
<g>
	<g>
		<path d="M159.691,335.264c-2.142,0.611-6.12-3.366-7.65-4.284c-2.448-1.53-4.896-3.061-7.038-4.284
			c-5.202-3.06-10.404-6.12-15.3-9.486c-1.53-0.918-3.06,1.53-1.53,2.754c7.344,4.896,14.688,9.792,22.032,14.383
			c2.754,1.529,8.262,7.037,11.016,3.365C162.14,336.793,161.222,334.957,159.691,335.264z"/>
		<path d="M203.755,333.428c-0.612-0.612-1.224-1.225-1.53-1.836c-0.612-0.612-1.53-0.307-2.142,0
			c-12.852-6.12-25.704-12.24-38.25-19.278c-0.918-0.307-1.53,0-2.142,0.306c0.306-0.612,0.306-1.224-0.306-1.53
			c-4.284-3.672-9.486-6.426-14.076-9.18c-5.508-3.366-10.71-6.426-16.218-9.792c-1.836-1.224-3.366,1.836-1.836,2.754
			c9.792,6.12,19.89,14.382,30.6,18.666c0.306,0.307,0.918,0,1.224-0.306c-0.306,0.612-0.306,1.836,0.612,2.142
			c13.464,7.65,27.54,14.994,41.922,21.114C203.755,337.405,204.979,334.651,203.755,333.428z"/>
		<path d="M158.773,296.401c-9.18-5.814-18.972-10.404-28.152-16.524c-2.142-1.224-3.978,1.836-1.836,3.366
			c8.874,6.12,18.36,12.546,28.764,16.218C159.08,299.768,159.998,297.319,158.773,296.401z"/>
		<path d="M157.244,283.855c-9.486-6.426-18.972-11.934-27.846-18.972c-1.836-1.53-4.284,1.224-2.448,2.448
			c8.874,7.038,18.36,14.382,28.764,18.972C157.55,287.527,159.08,285.079,157.244,283.855z"/>
		<path d="M156.631,267.943c-7.344-3.672-14.688-7.344-21.114-12.24c-2.142-1.53-3.978,1.836-1.836,3.366
			c6.732,5.202,13.77,9.18,21.726,11.934C157.244,271.615,158.468,268.861,156.631,267.943z"/>
		<path d="M159.08,258.763c-8.874-7.038-18.36-13.158-27.234-20.196c-1.836-1.53-4.59,1.224-2.754,2.754
			c8.874,7.038,18.054,14.688,28.152,19.584C158.468,261.517,160.304,259.681,159.08,258.763z"/>
		<path d="M159.386,243.463c-7.038-5.814-14.688-10.71-22.338-15.912c-2.142-1.53-3.978,1.836-1.836,3.366
			c7.344,5.202,14.382,10.71,22.032,15.3C158.773,247.135,160.916,244.688,159.386,243.463z"/>
		<path d="M161.527,233.671c-7.038-6.426-16.218-11.016-23.868-16.524c-1.836-1.224-3.366,1.53-1.53,2.754
			c7.65,5.508,15.3,12.24,23.868,15.912C161.222,236.425,163.058,234.896,161.527,233.671z"/>
		<path d="M161.833,218.371c-5.814-3.366-11.628-6.12-16.83-10.098c-2.142-1.53-4.284,2.142-2.142,3.672
			c5.202,3.978,11.016,7.956,17.442,9.792C162.446,222.349,163.364,219.595,161.833,218.371z"/>
		<path d="M200.083,353.012c-12.546-5.202-25.092-9.486-37.332-15.301c-1.53-0.611-3.06,1.53-1.53,2.448
			c11.628,6.426,24.786,12.853,37.638,15.912C201.308,356.377,201.919,353.93,200.083,353.012z"/>
		<path d="M202.532,344.138c-6.12-3.673-13.158-5.509-19.89-8.568c-6.732-2.754-13.158-6.12-19.278-9.486
			c-2.448-1.224-4.59,2.448-2.142,3.672c11.934,6.427,26.622,14.994,40.086,17.137C203.144,347.503,204.062,345.361,202.532,344.138
			z"/>
		<path d="M200.39,316.598c-11.628-5.814-23.562-9.792-34.272-16.83c-2.142-1.225-3.978,1.836-1.836,3.06
			c10.404,6.732,22.644,14.382,35.19,16.524C200.696,319.657,202.226,317.209,200.39,316.598z"/>
		<path d="M235.58,320.881c-12.546-5.508-25.092-10.403-37.332-16.829c0.306-0.612,0.306-1.53-0.612-2.143
			c-12.24-5.202-24.174-10.098-35.19-17.136c-2.142-1.224-3.978,1.836-1.836,3.06c10.71,6.732,22.338,13.158,34.578,16.524
			c0,0.306,0.306,0.612,0.612,0.612c11.628,7.649,25.398,14.688,39.168,18.054C235.886,323.636,237.109,321.493,235.58,320.881z"/>
		<path d="M194.881,289.669c-10.71-4.896-20.808-10.404-29.988-17.441c-2.142-1.53-3.978,1.836-2.142,3.366
			c9.486,7.344,19.584,13.158,31.212,16.524C195.188,292.423,196.105,290.281,194.881,289.669z"/>
		<path d="M194.576,281.407c-0.612-0.306-1.224-0.918-1.836-1.224c-0.306-0.306-0.612-0.306-1.224-0.306
			c-9.18-4.896-18.36-9.486-27.846-14.382c-2.448-1.224-4.284,2.448-2.142,3.366c10.098,5.202,20.196,11.016,30.6,15.606
			C194.881,285.997,196.718,282.938,194.576,281.407z"/>
		<path d="M194.576,271.003c-4.59-3.672-10.098-6.12-15.3-8.874c-4.59-2.448-9.792-6.426-14.688-7.038
			c-0.918,0-1.53,0.306-1.836,0.918c0,0.306,0,0.306-0.306,0.612c-0.306,0.612,0.306,1.224,0.612,1.53l0.306,0.306
			c1.224,0.918,2.142-0.612,1.836-1.836c2.142,4.59,9.792,7.344,14.382,9.792c4.284,2.448,8.874,5.508,13.77,6.732
			C194.576,273.451,195.494,271.921,194.576,271.003z"/>
		<path d="M191.822,256.621c-8.874-3.672-16.83-7.65-25.398-12.24c-1.53-0.918-3.366,1.224-1.836,2.448
			c7.344,6.12,16.83,10.71,26.316,13.158C193.045,260.293,193.658,257.233,191.822,256.621z"/>
		<path d="M227.624,258.151c0-1.224-2.142-2.142-2.754-1.224c-10.71-7.038-21.114-14.076-31.518-21.726
			c-1.53-1.224-3.672,1.53-2.142,2.754c0.612,0.612,1.224,0.918,1.836,1.53c-9.792-4.284-19.278-8.262-28.152-14.688
			c-2.142-1.53-3.978,1.836-1.836,3.366c8.568,6.426,18.666,12.24,29.07,14.382c1.224,0.306,2.448-1.224,1.53-2.448
			c9.486,7.956,19.89,15.606,30.906,22.032c1.224,0.918,3.366-0.306,3.366-1.836C227.93,259.681,227.93,259.069,227.624,258.151z"/>
		<path d="M229.459,244.993c-1.224-1.53-2.448-3.06-3.672-4.284c-0.918-0.918-1.836-0.612-2.754,0
			c-10.404-7.038-20.502-14.688-29.682-23.562c-1.224-1.224-2.754-0.306-3.366,0.918c-3.06-1.836-6.12-3.366-9.18-5.202
			c-5.508-3.06-10.71-6.732-15.606-10.71c-1.53-1.224-3.672,1.53-2.142,2.754c8.568,7.038,19.584,16.218,30.6,18.666
			c9.486,9.792,20.808,18.666,32.742,25.398C229.153,250.195,230.99,247.135,229.459,244.993z"/>
		<path d="M195.494,207.355c-6.732-4.284-14.688-7.038-21.42-11.934c-1.53-0.918-3.06,1.224-1.836,2.448
			c6.426,4.896,14.076,10.71,22.032,12.546C196.105,210.416,197.023,208.273,195.494,207.355z"/>
		<path d="M199.777,191.443c-10.404-5.202-19.89-10.098-28.152-18.054c-1.836-1.836-4.59,0.918-2.754,2.754
			c7.956,8.262,18.36,16.218,29.988,18.054C200.083,194.503,201.308,192.361,199.777,191.443z"/>
		<path d="M203.755,181.651c-9.486-6.426-21.42-10.71-31.518-16.218c-2.142-1.224-4.284,2.142-1.836,3.366
			c9.792,5.814,20.808,13.158,32.13,15.912C204.368,185.017,205.286,182.569,203.755,181.651z"/>
		<path d="M236.804,339.854c-4.59-3.366-10.404-5.508-15.3-8.262c-5.202-2.755-9.792-5.814-14.688-9.181
			c-1.53-0.918-2.754,1.225-1.224,2.143c8.874,6.731,19.584,14.688,30.294,17.441C237.416,342.607,238.027,340.771,236.804,339.854z
			"/>
		<path d="M237.416,334.346c-10.098-8.263-21.726-14.688-32.742-21.727c-1.53-0.918-3.06,1.53-1.53,2.448
			c10.71,7.038,21.114,15.3,32.436,21.114C237.109,337.405,238.946,335.569,237.416,334.346z"/>
		<path d="M232.213,314.455c-9.792-7.344-20.808-12.852-31.518-18.054c-1.53-0.612-2.754,1.53-1.224,2.142
			c10.71,5.814,20.808,12.546,31.518,18.36C232.213,317.821,233.438,315.373,232.213,314.455z"/>
		<path d="M234.968,305.581c-0.306-1.224-2.142-1.224-2.448,0c0.612-2.142-33.66-18.666-37.026-20.196
			c-1.224-0.918-2.448,1.224-1.224,1.836c8.874,4.896,17.442,9.792,26.316,14.688c3.366,1.836,9.792,7.956,13.77,5.508
			c0.612-0.306,0.918-0.918,0.612-1.529V305.581z"/>
		<path d="M233.131,296.707c-12.24-7.956-26.316-13.77-38.862-21.42c-1.836-1.224-3.366,1.836-1.53,2.754
			c12.546,7.65,25.398,16.524,39.168,21.419C233.438,300.379,234.355,297.625,233.131,296.707z"/>
		<path d="M229.766,283.855c-11.322-2.142-22.338-11.934-31.212-18.666c-1.836-1.224-3.672,1.836-1.836,3.06
			c6.12,4.59,12.546,9.18,19.278,13.464c4.284,2.754,8.568,6.12,13.77,5.202C231.295,286.303,231.295,284.161,229.766,283.855z"/>
		<path d="M227.93,268.861c-12.852-6.426-24.786-11.628-35.496-21.726c-2.142-1.836-5.202,1.224-3.06,3.06
			c9.792,9.792,23.256,19.278,37.332,21.42C228.235,271.921,229.766,269.779,227.93,268.861z"/>
		<path d="M229.153,234.283c-6.732-0.918-14.382-7.65-19.89-11.322c-6.426-4.284-12.852-8.568-18.972-13.158
			c-1.836-1.53-3.672,1.836-1.836,3.366c7.956,6.12,16.218,11.934,24.786,17.442c3.978,2.754,11.322,9.792,16.524,6.426
			C230.377,236.119,230.377,234.283,229.153,234.283z"/>
		<path d="M228.848,218.983c-5.508-0.306-13.77-7.956-18.054-11.016c-5.814-4.284-11.322-8.568-17.136-13.158
			c-1.836-1.53-4.59,0.918-2.754,2.754c5.508,5.202,11.322,9.792,17.442,14.382c5.508,4.284,11.628,9.18,18.36,11.628
			c0.918,0.306,1.836,0,2.142-0.612l0.918-0.918C231.295,220.819,230.377,218.983,228.848,218.983z"/>
		<path d="M263.12,220.513c-1.224,0.918-11.934-5.814-13.158-6.426c-4.284-2.142-8.262-4.59-12.24-7.038c-0.306,0-0.306,0-0.612,0
			c-0.306-0.306-0.612-0.612-1.224-0.612c-6.426,0.306-14.076-6.12-18.972-9.486c-5.202-3.366-10.404-7.038-15.606-11.016
			c-2.142-1.53-4.896,1.836-2.754,3.672c6.732,5.508,13.77,10.404,21.114,14.994c4.896,3.06,10.71,7.956,16.218,5.814
			c5.508,3.366,11.016,6.732,16.524,9.792c3.366,1.836,7.65,5.202,11.628,4.284c0.612-0.306,1.224-0.918,1.53-1.53
			c0-0.306,0.306-0.612,0.306-0.918C266.18,221.125,264.344,219.595,263.12,220.513z"/>
		<path d="M267.403,212.557c-7.956-5.508-16.83-9.486-25.092-14.076c-0.612-0.306-1.224-0.306-1.53,0c0-0.306,0-0.612-0.306-1.224
			c-0.612-1.224-1.836-1.224-2.448-0.306c-10.098-6.12-20.502-11.934-30.294-18.36c-2.142-1.53-3.978,1.836-2.142,3.366
			c10.098,7.038,20.502,14.382,31.824,19.89c0.612,0.306,0.918,0.306,1.53,0c0.306,0.612,0.306,0.918,0.918,1.224
			c8.568,4.59,17.136,9.792,26.01,13.464C268.016,217.453,269.24,213.781,267.403,212.557z"/>
		<path d="M282.397,356.684c-5.202-3.979-11.934-6.12-18.054-8.568c-6.12-2.754-12.24-5.508-18.36-7.956
			c-2.142-0.918-4.284,2.448-1.836,3.366c6.426,3.06,13.158,5.813,19.584,8.874c5.814,2.754,11.628,5.813,17.748,7.344
			C283.01,359.743,283.928,357.602,282.397,356.684z"/>
		<path d="M278.726,334.651c0-0.612-0.918-1.224-1.53-1.224h-0.306c-0.612,0-1.224,0.611-1.53,1.224
			c-0.306-1.53-1.224-2.448-2.754-2.754c-1.53-0.612-3.06-1.225-4.284-2.143c-2.754-1.529-5.814-2.754-8.568-4.283
			c-5.508-3.061-11.016-6.427-16.218-10.404c-2.142-1.53-3.978,1.836-1.836,3.366c6.12,4.59,12.546,8.567,19.278,12.239
			c4.59,2.448,11.016,7.038,16.524,6.732c1.224,0,2.142-1.224,1.836-2.448C279.032,334.957,279.032,334.957,278.726,334.651z"/>
		<path d="M269.24,317.821c-0.306,0-0.306,0-0.612,0c-0.306,0-0.918,0-1.224,0c-0.306-0.306-0.918-0.612-1.53-0.612
			c-1.53-0.611-2.754-1.224-4.284-2.142c-2.448-1.224-5.202-2.142-7.65-3.366l-16.524-7.344c-1.836-0.918-3.672,1.836-1.836,3.06
			c6.732,3.366,13.77,6.427,20.502,9.792c3.366,1.53,8.874,5.814,12.852,4.59c0.612-0.306,1.224-0.918,1.224-1.529
			c0-0.307,0-0.612,0-0.612C270.463,318.739,269.852,318.127,269.24,317.821z"/>
		<path d="M268.934,306.806c-4.59-3.061-10.098-4.591-15.3-7.038c-5.202-2.448-10.098-5.202-14.688-7.956
			c-2.142-1.225-3.978,2.142-1.836,3.366c9.18,5.508,20.502,13.157,31.212,14.382C269.852,309.865,270.158,307.724,268.934,306.806z
			"/>
		<path d="M270.463,297.932c-11.322-5.814-22.95-11.016-34.272-16.218c-2.448-0.612-4.284,2.448-2.142,3.672
			c11.628,5.508,23.256,11.016,35.19,15.606C271.076,301.604,271.994,298.85,270.463,297.932z"/>
		<path d="M267.709,287.221c-10.404-4.896-20.808-9.18-30.906-15.3c-1.836-1.224-3.366,1.836-1.836,3.06
			c9.486,6.426,20.196,12.546,31.518,15.3C268.322,290.587,269.545,288.139,267.709,287.221z"/>
		<path d="M270.158,275.593c-3.672-2.142-6.732-4.59-10.098-7.344c-1.224-0.918-2.448,0.918-1.53,1.836
			c0.612,0.306,0.918,0.918,1.53,1.224c-8.568-3.366-16.83-6.732-24.786-11.322c-2.754-1.53-5.202,2.754-2.448,4.284
			c11.016,6.732,23.562,12.852,36.72,14.382C271.076,279.265,271.688,276.511,270.158,275.593z"/>
		<path d="M262.813,263.047c-9.486-4.284-19.278-7.65-29.376-10.404c-2.448-0.612-3.366,2.754-0.918,3.672
			c9.486,3.672,19.278,6.732,29.07,10.098C263.426,266.719,264.649,263.965,262.813,263.047z"/>
		<path d="M266.792,251.419c-10.71-4.284-21.726-7.65-31.824-12.852c-2.448-1.224-4.59,2.448-2.142,3.672
			c10.404,5.508,21.42,10.71,33.048,12.546C268.016,255.397,268.934,252.337,266.792,251.419z"/>
		<path d="M264.649,234.283c-0.306-0.306-0.306-0.612-0.612-0.612c-0.918-1.53-3.672-0.612-3.06,1.224
			c-0.612-2.754-8.568-4.59-11.322-6.12c-3.06-1.53-10.098-3.672-11.322-7.038c-0.918-2.754-4.896-1.53-4.284,1.224
			c2.142,6.426,11.322,8.874,16.83,11.322c3.366,1.53,11.016,6.732,13.464,1.836C264.956,235.507,264.956,234.589,264.649,234.283z"
			/>
		<path d="M306.571,331.285c-5.201-0.306-9.484-3.978-13.77-6.426c-1.836-0.918-3.672-1.53-5.508-2.448
			c-1.224-0.612-4.284-0.918-5.202-1.836c-0.612-0.612-1.836,0.306-1.53,1.224c0.918,1.225,3.366,2.143,4.59,2.755
			c3.06,1.529,6.121,2.754,8.875,4.59c3.365,2.142,9.791,7.649,13.77,4.284C308.407,332.815,307.489,331.285,306.571,331.285z"/>
		<path d="M308.713,323.329c-4.283-3.978-10.404-5.813-15.299-8.567c-5.815-3.061-11.629-6.427-17.137-9.792
			c-1.836-1.225-3.672,1.836-1.836,3.06c5.508,3.672,11.322,7.038,16.831,10.098c4.896,2.754,10.404,6.732,15.912,7.65
			C308.713,326.083,309.938,324.554,308.713,323.329z"/>
		<path d="M303.206,312.007c-3.979-3.365-9.18-5.508-13.465-7.955c-5.201-2.755-10.097-5.814-15.299-8.874
			c-2.142-1.225-3.672,1.836-1.836,3.06c4.896,3.06,10.098,6.12,14.994,9.18c4.59,2.754,9.18,5.814,14.077,7.038
			C302.899,315.067,304.43,313.231,303.206,312.007z"/>
		<path d="M301.981,300.379c-10.404-7.037-21.726-11.934-31.518-20.196c-2.142-1.836-5.202,1.224-3.06,3.06
			c9.792,7.956,21.114,16.83,33.355,20.196C302.594,304.357,303.512,301.604,301.981,300.379z"/>
		<path d="M300.145,289.057c-9.791-4.589-19.277-9.485-27.845-16.217c-1.224-0.918-3.06,0.612-1.836,1.836
			c8.262,7.344,17.748,13.77,28.764,16.83C300.452,291.812,301.37,289.669,300.145,289.057z"/>
		<path d="M296.78,272.533c-7.956-5.202-16.524-9.486-25.092-13.77c-1.53-0.918-2.754,1.53-1.224,2.142
			c8.262,4.896,16.218,9.792,24.787,13.77C296.78,275.593,298.309,273.451,296.78,272.533z"/>
		<path d="M296.168,261.211c-8.263-3.366-16.525-7.344-24.175-12.24c-1.53-0.918-3.06,1.53-1.53,2.448
			c7.956,5.202,15.912,9.486,25.092,11.934C297.086,263.965,297.698,261.823,296.168,261.211z"/>
		<path d="M335.336,266.413c-10.404-6.732-22.951-11.016-34.273-16.524c-1.836-0.918-3.365,0.612-3.059,2.142
			c-8.875-3.978-17.443-7.65-25.399-13.158c-1.836-1.224-3.672,1.836-1.836,3.06c8.874,6.12,18.36,11.628,28.764,14.076
			c0.918,0.306,1.529-0.612,1.836-1.224c10.404,5.508,21.42,11.934,32.742,14.688C335.948,269.779,336.866,267.637,335.336,266.413z
			"/>
		<path d="M335.03,256.927c-4.285-3.672-10.098-5.202-14.994-7.956c-5.508-3.06-10.711-6.12-15.912-9.792
			c-0.918-0.612-2.143-0.306-2.447,0.612c0-0.306-0.307-0.612-0.307-0.918c-3.672-3.06-8.568-4.59-12.546-7.344
			c-4.896-3.06-8.874-7.038-12.546-11.628c-1.836-2.142-4.896,0.918-3.06,3.06c3.672,4.59,7.956,8.568,12.852,11.934
			c3.978,2.754,9.486,6.426,14.689,6.426c0.611,0,0.918-0.306,1.223-0.612c0,0.612,0,1.53,0.918,1.836
			c5.508,3.672,11.018,7.344,16.83,10.404c4.59,2.448,9.793,5.814,14.994,6.426C335.336,259.987,335.948,257.845,335.03,256.927z"/>
		<path d="M300.758,222.961c-3.367-3.06-7.344-4.896-11.018-7.344c-4.589-3.06-8.567-6.426-12.851-9.792
			c-2.448-2.142-5.814,1.224-3.366,3.366c7.038,6.426,16.217,14.688,25.399,17.136C300.758,226.633,302.288,224.186,300.758,222.961
			z"/>
		<path d="M304.735,213.169c-9.791-4.284-18.666-7.956-26.927-15.3c-2.448-2.142-5.814,1.224-3.672,3.672
			c7.956,7.038,18.054,14.076,28.763,15.606C305.042,217.147,307.184,214.087,304.735,213.169z"/>
		<path d="M303.512,200.317c-0.613-1.224-0.918-1.53-2.143-2.142c-0.611-0.306-0.918-0.306-1.225,0
			c-6.73-3.978-13.77-7.65-20.195-11.934c-2.448-1.53-4.59,2.448-2.448,3.978c7.344,4.896,15.3,10.098,23.562,13.158
			C303.206,204.295,304.43,201.847,303.512,200.317z"/>
		<path d="M341.456,365.863c-10.711-3.672-20.809-6.12-30.6-12.24c-1.836-1.224-3.672,1.836-1.836,3.061
			c9.486,5.813,20.807,11.321,32.129,11.934C342.68,368.617,342.985,366.476,341.456,365.863z"/>
		<path d="M344.516,360.049c-5.508-3.06-11.934-5.201-17.748-7.649c-4.896-1.836-11.322-6.12-16.525-6.12
			c-0.305,0-0.611,0.306-0.918,0.918c0,0.306,0,0.306,0,0.612c0,0.306,0.307,0.611,0.613,0.611h0.305
			c0.918,0.307,1.225-1.224,0.307-1.529c3.061,1.224,6.426,3.672,9.486,4.896c2.754,1.225,5.508,2.448,7.955,3.672
			c5.203,2.143,10.1,4.896,15.607,6.427C344.821,362.191,345.434,360.661,344.516,360.049z"/>
		<path d="M343.598,343.22c-0.307-0.612-0.613-1.53-0.918-2.143c-0.613-1.224-1.836-0.918-2.143,0
			c-9.18-5.202-18.359-10.404-27.234-16.218c-1.836-1.224-3.672,1.836-1.836,3.06c9.486,6.427,19.277,13.158,29.682,17.748
			C342.68,346.279,344.209,344.749,343.598,343.22z"/>
		<path d="M342.68,332.51c-10.711-6.732-22.033-12.547-33.355-18.055c-1.223-0.611-2.447,1.225-1.223,2.143
			c10.709,6.731,21.725,13.157,33.047,18.972C342.985,336.182,344.516,333.733,342.68,332.51z"/>
		<path d="M338.702,313.844c-0.611-1.225-1.225-2.143-1.836-3.366c-0.611-1.225-2.447-0.612-2.447,0.611
			c-7.346-3.672-23.258-11.628-22.34-13.77c0.92-2.448-3.059-3.672-3.977-1.224c-1.531,4.896,5.201,7.649,8.568,9.485
			c6.426,3.979,13.156,7.65,20.195,10.404C338.09,317.209,339.313,315.067,338.702,313.844z"/>
		<path d="M337.784,304.052c-4.896-3.061-10.098-4.896-14.994-7.65c-5.508-3.06-10.404-6.732-15.301-10.71
			c-1.836-1.53-4.59,1.224-2.754,2.754c8.875,7.65,20.197,16.524,31.824,18.36C338.09,307.417,339.313,304.97,337.784,304.052z"/>
		<path d="M338.09,295.789c-8.264-6.12-19.279-10.098-28.766-14.076c-1.223-0.612-2.141,0.612-1.223,1.53
			c0.305,0.612,0.918,0.918,1.223,1.53c0.307,0.612,0.918,0.306,1.225,0c8.568,4.59,17.441,10.098,26.623,12.852
			C338.395,298.237,339.008,296.401,338.09,295.789z"/>
		<path d="M336.866,288.139c-9.793-7.038-21.42-11.934-32.436-16.524c-1.225-0.612-2.449,1.224-1.225,1.836
			c11.016,5.202,21.113,11.934,32.131,17.136C337.172,291.505,338.395,289.363,336.866,288.139z"/>
		<path d="M336.559,275.593c-11.016-5.508-21.725-10.404-31.824-17.748c-2.447-1.836-4.59,2.142-2.141,3.978
			c9.791,7.344,20.807,14.076,32.742,17.442C337.172,279.877,338.702,276.511,336.559,275.593z"/>
		<path d="M367.465,256.315c-10.098-5.202-19.891-11.016-30.293-15.912c-0.918-0.612-2.143,0.612-1.531,1.53
			c-4.896-0.918-10.709-5.202-14.688-7.65c-4.896-3.06-9.486-6.426-14.076-9.792c-1.836-1.53-4.59,1.836-2.754,3.366
			c6.119,4.896,12.547,9.486,18.973,13.464c3.672,2.142,10.404,7.65,14.688,4.284c0.307-0.306,0.611-0.612,0.611-1.224
			c8.262,6.12,18.055,10.71,27.541,14.688C367.772,259.987,368.995,257.233,367.465,256.315z"/>
		<path d="M335.03,232.141c-9.486-4.896-19.277-9.18-29.377-12.852c-1.223-0.612-2.141,1.53-0.918,2.448
			c9.486,4.896,19.279,9.486,29.07,13.464C335.336,235.507,336.559,233.06,335.03,232.141z"/>
		<path d="M334.418,223.267c-8.875-4.59-17.137-9.18-25.094-14.994c-1.836-1.53-3.672,1.836-1.836,3.06
			c7.957,6.12,16.219,11.322,25.705,14.994C335.03,227.245,336.254,224.186,334.418,223.267z"/>
		<path d="M337.784,213.781c-4.283-3.06-9.486-5.202-13.77-7.956c-4.896-3.06-9.486-6.732-13.771-10.71
			c-1.836-1.53-4.283,0.918-2.754,2.754c7.65,7.344,18.361,16.524,29.07,18.666C338.395,216.841,339.008,215.005,337.784,213.781z"
			/>
		<path d="M334.112,202.459c-1.225,0.612-10.098-6.12-11.629-7.038c-4.59-3.06-8.873-6.732-12.852-10.404
			c-1.529-1.53-3.979,0.918-2.447,2.448c3.059,3.06,26.316,24.48,29.07,16.524C336.559,203.071,335.03,201.847,334.112,202.459z"/>
		<path d="M387.661,344.138c-13.156-5.202-25.396-9.792-37.025-17.748c-1.225-0.918-2.447,1.224-1.225,2.142
			c11.018,7.956,24.176,15.606,37.639,18.36C388.579,347.197,389.192,344.749,387.661,344.138z"/>
		<path d="M382.153,332.51c-13.158-5.814-26.01-10.711-38.861-17.442c-1.529-0.918-3.061,1.53-1.529,2.448
			c11.627,7.649,25.396,14.994,39.168,17.748C382.459,335.264,383.684,333.121,382.153,332.51z"/>
		<path d="M378.788,321.493c-6.119-3.672-13.158-6.12-19.584-9.485c-6.426-3.366-12.547-7.038-18.666-11.322
			c-1.836-1.225-3.672,1.836-1.836,3.06c11.322,7.956,25.092,17.442,38.861,20.196C379.094,324.247,380.317,322.411,378.788,321.493
			z"/>
		<path d="M374.504,310.171c-12.24-5.201-24.174-10.71-35.191-17.748c-1.529-0.918-2.754,1.225-1.223,2.448
			c11.016,7.344,22.949,14.076,35.496,18.055C374.809,313.231,376.034,310.783,374.504,310.171z"/>
		<path d="M376.034,299.768c-6.119-2.754-12.852-4.59-18.973-7.65c-6.119-3.061-11.627-6.732-17.441-10.71
			c-1.529-0.918-3.365,1.224-1.836,2.448c10.098,8.262,23.867,16.83,37.025,18.972C376.34,302.827,377.563,300.379,376.034,299.768z
			"/>
		<path d="M372.973,285.385c-11.322-5.814-22.031-10.71-31.824-19.584c-1.836-1.53-4.283,0.918-2.447,2.448
			c9.18,8.568,20.809,17.136,33.354,19.584C373.586,288.445,374.504,286.303,372.973,285.385z"/>
		<path d="M369.301,267.331c-0.307,0-0.307-0.306-0.611-0.306c-0.613-0.306-0.918-0.306-1.531,0
			c-0.305-0.306-0.918-0.612-1.836-0.918c-1.223-0.612-2.754-1.53-3.977-2.142c-2.754-1.53-5.203-3.06-7.957-4.59
			c-2.447-1.53-5.201-3.06-7.65-4.59c-1.529-0.918-5.812-3.06-7.037-4.896c0.307-1.53-1.225-3.366-3.061-2.448
			c-0.305,0-0.305,0.306-0.611,0.306c-0.918,0.612-1.225,1.53-0.918,2.448c0.307,2.142,1.836,3.06,3.672,4.284
			c3.979,2.754,8.262,5.202,12.545,7.65c3.979,2.448,7.65,4.59,11.936,6.732c2.141,1.224,3.977,2.448,6.119,1.836
			c0.611,0,1.225-0.612,1.225-1.224v-0.918C370.219,268.555,369.915,267.943,369.301,267.331z"/>
		<path d="M369.608,248.053c-9.486-5.202-19.279-9.18-29.07-13.464c-1.529-0.612-3.061,0.918-1.836,2.142
			c0.918,0.918,1.836,1.53,2.754,2.448c0.611,0.612,1.225,0.306,1.836,0c7.957,4.284,15.912,8.568,24.174,12.24
			C369.915,252.337,372.055,249.277,369.608,248.053z"/>
		<path d="M371.137,234.589C371.137,234.589,371.137,234.283,371.137,234.589c-0.918-1.836-3.061-1.224-3.365,0
			c0.611-2.448-12.24-7.65-14.076-8.874c-4.896-2.754-9.793-5.814-14.688-8.874c-2.143-1.53-3.979,2.142-1.836,3.366
			c6.73,4.59,13.463,8.568,20.502,12.546c3.059,1.836,9.18,7.038,12.852,4.284C371.444,236.731,371.75,235.507,371.137,234.589z"/>
		<path d="M366.241,212.557c-8.566-5.202-18.666-8.568-27.539-13.77c-2.754-1.53-4.896,2.448-2.447,3.978
			c8.566,5.202,18.359,11.322,28.457,12.852C366.854,216.535,368.077,213.781,366.241,212.557z"/>
		<path d="M367.465,200.624c-9.486-4.896-19.891-8.568-29.375-13.77c-1.836-0.918-3.367,1.836-1.531,2.754
			c9.18,5.508,19.279,11.322,29.682,14.076C368.077,204.295,369.301,201.542,367.465,200.624z"/>
		<path d="M418.874,355.766c-0.611-0.307-1.225-0.612-1.836-0.918c-0.307-0.307-0.611,0-1.225,0
			c-8.873-2.448-17.441-4.591-26.01-7.65c-1.529-0.612-2.447,2.142-0.611,2.754c9.18,3.366,18.973,6.426,28.457,8.568
			C419.18,358.825,420.403,356.377,418.874,355.766z"/>
		<path d="M420.403,349.646c-0.611-0.612-1.223-1.225-1.836-1.836c-0.611-0.612-1.529-0.307-2.141,0.306
			c-10.1-3.366-19.891-7.344-29.377-11.628c-1.225-0.612-2.447,1.224-1.225,2.142c10.711,5.509,21.727,10.099,32.742,13.771
			C420.403,353.012,421.321,350.869,420.403,349.646z"/>
		<path d="M416.426,338.936c-1.531-2.448-3.367-3.979-5.814-5.202c-1.225-0.612-2.143,0.612-1.529,1.53
			c-8.264-3.672-16.525-7.345-24.48-11.628c-1.531-0.919-3.061,1.529-1.531,2.447c10.1,5.814,20.502,11.017,31.52,15.606
			C415.813,341.995,417.344,340.159,416.426,338.936z"/>
		<path d="M414.284,330.673c-10.711-6.731-23.562-10.403-35.189-15.3c-1.225-0.611-2.143,1.836-0.918,2.143
			c11.322,4.896,23.256,11.628,35.496,14.688C414.895,332.815,415.508,331.285,414.284,330.673z"/>
		<path d="M412.448,319.352c-10.098-5.814-21.727-9.181-32.436-14.688c-1.225-0.611-2.449,1.225-1.225,1.836
			c10.098,5.508,21.42,12.24,32.436,14.688C412.754,321.493,413.366,319.963,412.448,319.352z"/>
		<path d="M407.551,306.193c-8.568-3.366-16.83-6.732-24.174-12.24c-2.143-1.53-4.283,2.143-2.143,3.672
			c7.344,5.508,15.912,10.404,25.398,11.935C408.776,309.865,409.694,306.806,407.551,306.193z"/>
		<path d="M411.836,295.483c-0.613-0.918-1.225-1.836-1.836-2.754c-0.613-1.225-2.449-0.612-2.449,0.918
			c-12.24-4.591-24.174-9.18-36.107-14.994c-2.143-0.918-3.979,2.142-1.836,3.366c12.852,6.426,26.316,12.546,40.086,16.523
			C411.223,298.85,412.448,297.014,411.836,295.483z"/>
		<path d="M406.022,280.183c-10.098-3.366-19.279-6.12-27.846-13.158c-2.143-1.836-5.203,1.224-3.061,3.06
			c8.568,7.038,18.973,13.158,30.293,13.77C407.858,284.161,408.165,280.795,406.022,280.183z"/>
		<path d="M403.573,267.637c-11.016-5.202-22.338-9.486-33.047-15.3c-2.143-1.224-4.285,2.142-2.143,3.366
			c10.711,5.814,22.033,11.628,33.66,14.688C403.879,270.697,405.104,268.25,403.573,267.637z"/>
		<path d="M401.125,254.785c-10.098-3.366-19.584-7.038-29.07-11.934c-1.223-0.612-2.141,0.918-0.918,1.836
			c9.18,5.508,18.973,10.404,29.377,13.158C402.043,257.845,402.961,255.397,401.125,254.785z"/>
		<path d="M401.125,235.813c-0.918-0.918-2.143-0.306-2.447,0.306c-3.672-1.224-7.344-2.448-10.711-3.978
			c-2.447-0.918-11.322-3.978-12.24-6.732c-0.611-2.754-4.895-1.53-4.283,1.224c1.225,4.284,6.732,6.12,10.709,7.956
			c5.814,2.754,11.629,4.896,17.748,6.426c1.225,0.306,2.754-0.612,2.754-2.142C402.655,237.649,402.35,237.037,401.125,235.813z"/>
		<path d="M400.208,223.573c0-0.306-0.307-0.306-0.307-0.612c-0.611-0.612-1.529-0.612-2.141,0
			c-0.307-0.306-0.613-0.612-1.531-0.612c-1.223-0.612-2.447-1.224-3.672-2.142c-2.447-1.224-4.896-2.754-7.344-4.284
			c-4.896-2.754-9.791-6.12-14.381-9.486c-2.143-1.53-4.285,2.142-2.143,3.672c7.037,5.202,14.688,10.404,22.645,14.382
			c2.754,1.53,7.955,4.896,9.791,0.612C400.819,224.797,400.514,224.186,400.208,223.573z"/>
		<path d="M398.678,210.416c-1.531-2.754-4.896-3.366-7.65-4.59c-4.59-1.836-9.18-3.366-13.465-6.426
			c-2.141-1.53-4.283,2.142-2.141,3.672c6.119,4.59,14.381,5.508,20.502,9.792C397.76,214.394,399.596,212.251,398.678,210.416z"/>
		<path d="M397.76,198.481c-7.344-4.284-15.607-7.344-22.951-11.934c-2.141-1.224-3.672,1.836-1.836,3.06
			c7.039,4.59,15.301,10.098,23.562,11.934C398.372,202.153,399.596,199.705,397.76,198.481z"/>
		<path d="M398.678,185.936c-9.486-4.896-19.891-8.262-29.377-13.158c-2.754-1.224-4.896,2.754-2.447,3.978
			c9.486,4.896,19.889,10.098,30.6,12.24C399.29,189.301,400.514,186.854,398.678,185.936z"/>
		<path d="M404.491,164.821c-2.141-0.918-3.977-2.448-5.812-3.366c-0.307,0-0.307,0-0.613,0c-6.119-3.366-12.545-6.426-18.971-9.486
			c-2.143-1.224-4.285,2.142-1.836,3.366c8.262,4.59,16.523,9.792,25.396,13.464C404.797,169.717,406.94,166.045,404.491,164.821z"
			/>
		<path d="M492.008,342.913c0,0.307-32.438-12.24-37.639-14.076c0.611,0,1.225-0.611,1.529-1.224c0-0.306,0-0.612,0.307-0.918
			c0.307-1.224-0.918-1.836-1.836-1.53c-1.836,0.918-7.65-2.448-9.793-3.366c-3.365-1.224-6.73-2.447-10.098-3.672
			c-6.426-2.447-12.852-4.59-18.971-7.038c-1.836-0.611-2.449,2.143-0.918,2.755c7.344,2.754,14.688,5.508,21.725,8.262
			c5.203,2.142,11.018,5.508,16.83,6.12c-0.611,0.306-0.611,1.529,0.307,1.836c0.611,0.306,1.225,0.306,1.529,0.611h-0.305
			c-11.322-4.896-22.951-8.874-34.578-13.157c-2.143-0.918-3.061,2.754-0.918,3.672c12.24,4.896,24.174,10.098,36.719,14.076
			c2.143,0.611,3.367-2.448,1.531-3.366c-0.613-0.307-1.225-0.612-1.836-0.918c7.344,3.06,14.688,6.12,22.031,9.18
			c3.979,1.53,11.322,6.732,15.912,4.896c0.611-0.307,0.918-0.612,0.918-1.53c0-0.306,0-0.612,0-0.918
			C494.762,341.689,492.62,341.689,492.008,342.913z"/>
		<path d="M446.108,308.335l-0.307-0.306c-0.611-0.612-1.836-0.612-2.447,0l0,0c-1.836,0-4.59-1.224-5.814-1.53
			c-2.447-0.611-4.896-1.224-7.65-2.142c-5.508-1.53-10.709-3.672-15.912-5.814c-2.447-0.918-3.672,3.061-1.223,4.284
			c7.037,2.754,14.076,5.202,21.113,7.344c3.365,0.918,9.18,3.673,12.24,0.918C447.026,310.171,447.026,308.947,446.108,308.335z"/>
		<path d="M445.19,297.625c-8.568-3.978-18.055-6.426-26.623-10.404c-1.836-0.918-3.672,1.835-1.836,3.06
			c8.262,4.284,17.748,9.486,26.928,11.016C445.801,301.297,447.333,298.543,445.19,297.625z"/>
		<path d="M435.704,243.463c-5.201-1.836-11.016-2.448-16.219-4.284c-5.812-2.142-11.32-4.896-16.523-8.568
			c-1.836-1.224-3.672,1.836-1.836,3.06c9.486,6.426,22.338,13.158,34.271,12.852C437.233,246.217,437.54,243.77,435.704,243.463z"
			/>
		<path d="M433.868,230.305c-4.283-2.754-9.18-3.978-14.076-5.814c-5.814-2.142-11.322-4.896-16.83-7.65
			c-2.143-1.224-3.979,2.142-1.836,3.06c9.18,5.202,21.113,12.546,31.824,13.158C434.786,233.365,435.092,231.223,433.868,230.305z"
			/>
		<path d="M430.196,210.721c-9.18-3.366-18.666-5.814-27.541-9.486c-2.447-1.224-4.59,2.448-2.141,3.672
			c9.18,4.284,19.277,8.262,29.375,9.486C431.725,214.699,432.032,211.333,430.196,210.721z"/>
		<path d="M431.725,191.75c-10.404-3.672-20.502-7.038-29.988-12.24c-2.754-1.53-4.895,2.448-2.447,3.978
			c9.793,5.508,20.195,10.404,31.213,11.934C432.95,196.033,434.174,192.667,431.725,191.75z"/>
		<path d="M485.583,298.543c7.344-43.452-3.674-88.74-28.459-125.459c-16.219-23.868-45.287-55.998-76.193-52.632
			c11.322-19.278,16.83-41.004,13.77-64.26c-8.875-65.79-85.986-64.872-112.608-16.524c-24.174-51.102-104.652-55.692-130.05,3.06
			c-13.158,30.6-6.426,60.588,10.71,85.374c-62.118,17.748-91.494,119.952-76.5,175.338c-15.606-3.672-32.13,0.306-43.146,13.158
			c-11.628,13.77-13.77,35.189-3.672,50.184c19.278,29.07,54.162,20.808,75.888,0.306c3.366,59.059,12.546,120.564,29.682,176.562
			c1.836,5.508,6.426,7.038,10.404,5.508c84.762,41.31,186.048,34.272,269.892-5.813c4.285-2.143,4.285-7.038,2.143-10.404
			c14.688-54.162,21.42-111.69,26.316-167.688c29.375,19.891,73.439,19.584,87.82-19.277
			C554.125,312.313,514.958,279.877,485.583,298.543z M521.69,317.516c-6.426-2.448-12.852-5.202-18.973-8.263
			C509.45,308.947,516.793,312.007,521.69,317.516z M275.359,57.415c-0.612,2.754,0.918,4.896,2.754,6.12
			c2.754,6.12,11.322,3.672,10.404-3.06c0-0.612-0.306-1.224-0.306-1.836c8.568-32.436,29.377-42.84,62.424-30.906
			c0,0.306,0.307,0.306,0.307,0.612c7.344,4.284,18.053,9.18,22.031,16.83c0.613,1.53,1.225,2.754,1.531,4.284l2.447,32.436
			c-2.143,16.524-14.383,37.026-25.092,49.266c-25.092,28.458-62.73,43.146-100.674,36.108
			c-37.026-6.732-72.522-33.354-83.844-70.38C143.78,19.777,242.618-9.599,275.359,57.415z M95.432,363.415
			c-6.732-2.142-13.464-3.978-20.502-5.202c-1.224-0.306-1.53,1.53-0.612,1.836c5.814,1.837,11.628,3.673,17.136,5.202
			c-10.098,4.896-20.808,5.814-31.824-1.529c-3.366-2.448-5.814-5.509-7.344-8.568c6.12,3.672,12.852,7.038,19.584,9.18
			c1.224,0.307,2.448-1.836,0.918-2.447c-7.65-3.366-15.3-7.038-22.338-11.322c-0.612-1.836-0.612-3.979-0.612-6.12
			c1.836,0.918,3.978,1.53,4.284,1.836c2.142,0.918,4.284,2.142,6.426,3.06c4.896,2.448,9.792,4.896,14.688,7.345
			c1.224,0.611,2.448-1.225,1.224-1.836c-6.732-3.979-14.076-7.038-21.114-10.099c-1.224-0.611-3.06-1.836-5.202-2.448
			c0.306-2.447,0.918-4.59,1.836-7.037c8.568,4.59,17.136,9.18,26.316,12.852c-1.53-0.612-2.448,2.142-0.612,2.754
			c7.956,3.366,16.218,6.12,24.48,7.956C100.021,360.355,97.574,361.886,95.432,363.415z M105.53,356.071
			c-8.874-2.448-17.748-4.59-26.316-7.956c1.53,0.306,2.448-2.142,0.918-2.754c-8.874-4.284-18.054-8.568-27.234-12.852
			c0.612-1.53,1.53-3.061,2.754-4.284c8.262,4.284,17.136,8.262,25.704,11.934c-0.612,0.918-0.306,2.143,0.918,2.754
			c9.18,3.366,18.36,6.732,27.846,9.181C108.896,353.317,107.366,354.848,105.53,356.071z M114.098,348.728
			c-8.568-2.754-17.442-5.202-26.01-7.956c0.306-0.612,0-1.53-0.612-1.836c-9.792-4.284-19.89-8.568-29.682-12.853l0,0
			c1.836-1.836,3.672-3.06,5.508-4.59c8.568,3.979,17.136,8.874,26.316,11.935c0,0,0,0,0,0.306
			c7.956,4.896,17.136,10.404,26.622,13.158C115.627,347.503,115.016,348.115,114.098,348.728z M119.605,343.525
			c-9.18-4.59-18.972-7.956-28.152-13.158c-0.306-0.306-0.612,0-0.918,0c-7.038-4.59-14.994-7.956-22.95-11.322
			c2.142-0.918,4.284-1.836,6.732-2.142c5.202,2.448,10.404,4.896,15.606,7.038c0,0,0,0.306,0.306,0.306
			c10.71,6.426,21.726,11.935,33.66,15.606C122.359,341.077,121.136,342.302,119.605,343.525z M126.644,334.957
			c-0.306,0.612-0.612,1.225-0.918,1.836c-10.71-5.201-21.42-10.098-31.824-15.912c-3.366-1.836-7.038-3.672-10.71-5.201
			c3.672-0.307,7.344,0,10.71,0.306c10.404,6.12,22.032,14.076,33.966,17.442C127.255,333.733,126.95,334.039,126.644,334.957z
			 M410.612,533.552c-84.457,29.987-163.098,28.151-249.696,7.649c0-0.611,0-1.224,0-1.836
			c-9.18-54.162-20.808-108.63-33.048-162.486c7.038,12.853,19.584,22.645,34.578,24.786c16.524,2.448,37.944-8.262,48.96-23.562
			c9.18,15.3,26.622,25.704,44.982,24.174c14.382-0.918,31.212-11.934,39.781-26.01c8.262,11.321,21.42,19.277,36.414,18.666
			c14.074-0.612,31.211-10.404,39.168-23.868c10.402,12.546,27.232,19.278,43.758,14.688c7.648-2.142,16.523-8.567,22.949-16.83
			C425.606,422.779,413.977,478.472,410.612,533.552z M155.102,371.678c8.568,3.672,18.36,7.344,27.846,9.18
			c-1.53,0.918-3.06,1.836-4.59,2.448c-3.366-0.612-6.732-1.225-10.098-2.143c-5.202-1.53-10.098-3.672-14.994-5.813
			c-0.612-0.307-0.612,0.611-0.306,0.918c5.508,3.978,12.546,6.731,19.584,8.567c-3.06,0.612-6.12,0.612-9.18,0
			c-10.098-1.836-17.442-8.567-22.032-16.83c3.978,2.755,8.262,4.896,12.852,6.427c0.918,0.306,1.53-1.225,0.612-1.836
			c-5.508-3.061-10.71-6.732-16.218-10.404c-0.612-1.53-0.918-3.06-1.53-4.896c5.814,4.591,12.24,8.568,18.972,11.017
			c1.53,0.612,2.142-1.53,0.918-2.143c-7.038-4.59-14.076-9.18-20.808-13.77c-0.306-1.836-0.306-3.672-0.612-5.508
			c0.612,0.611,1.53,0.918,2.142,1.529c5.508,3.673,11.016,8.263,16.83,11.322h0.306c0,0.612,0.306,1.53,1.224,1.836
			c11.322,4.284,22.95,10.099,34.884,13.464c-0.918,0.918-1.836,1.836-3.06,2.754c-10.404-3.06-21.42-5.201-31.824-8.567
			C154.795,368.617,153.572,371.065,155.102,371.678z M233.438,367.394c-0.306,0-0.612,0-0.612,0
			c-3.978-2.143-7.956-4.284-11.934-6.426c-0.612-1.225-1.224-2.448-1.53-3.673c0-1.529-0.306-3.06-0.612-4.59
			c5.814,2.448,11.934,4.896,18.054,6.732c0,0.611,0,0.918,0.612,1.224c11.016,6.426,23.256,11.322,35.802,13.771
			c0.306,0,0.918,0,1.224-0.307c-1.836,2.143-3.978,3.979-6.426,5.508C256.082,375.655,244.454,371.983,233.438,367.394z
			 M264.038,381.47c-2.754,1.224-5.814,2.142-9.486,2.447c-13.77,0.918-24.174-7.038-30.906-17.748
			c3.978,2.143,8.262,3.979,12.546,5.509c0.306,0,0.612,0,0.918-0.307C245.983,375.35,254.857,379.021,264.038,381.47z
			 M307.489,368.923c9.182,4.284,18.666,8.263,28.459,10.099C324.625,381.163,314.528,376.573,307.489,368.923z M387.661,365.558
			c7.346,1.836,14.689,3.978,22.34,5.508C402.043,372.901,394.088,370.453,387.661,365.558z M501.799,360.355
			c-1.836-0.307-3.672-0.918-5.508-1.225l0,0c0.611-0.306,0-1.224-0.611-0.918c-0.918,0-1.531,0-2.449,0.307h-0.305l0,0
			c-0.918-0.307-1.531,0.918-0.613,1.224c1.531,0.612,3.061,1.224,4.59,1.836c-10.402,1.836-20.807-0.918-30.6-6.12
			c6.121,2.448,12.547,4.896,18.666,5.508c1.531,0.307,1.531-1.836,0.307-2.447c-9.486-3.366-18.973-5.508-28.459-9.181
			c-0.305,0-0.305,0-0.611,0c-2.754-1.836-5.814-3.978-8.262-5.813c3.365,0.612,6.426,0.918,9.486-0.612
			c0.611-0.306,0.611-0.611,0.611-1.224c10.098,4.59,20.809,8.874,31.518,11.628c0.918,0.306,1.836-0.612,2.143-1.53h0.307
			c0,0,0.305,0,0.305-0.306c0.307,0,0.307-0.306,0.307-0.612c3.672-0.306,11.934,3.979,14.383,4.896
			c0.918,0.306,1.529,0.306,2.447,0.611C507.307,358.213,504.553,359.743,501.799,360.355z M525.055,338.323
			c-11.627-2.142-22.338-6.426-32.436-13.464c-1.529-0.918-2.754,1.224-1.529,2.448c9.791,7.344,20.502,12.239,32.436,14.382
			c-0.611,0.918-0.918,2.142-1.529,3.06c-0.307,0-0.307-0.306-0.613-0.306s-0.611,0-0.918,0c-8.262-1.836-15.912-4.284-23.562-8.262
			c-1.836-0.918-3.365,1.836-1.529,2.754c7.65,3.978,15.912,7.038,24.48,9.18c-1.836,2.143-3.672,4.284-5.814,6.12
			c-3.979-0.612-7.955-1.836-11.934-3.06c-2.754-0.918-8.262-3.673-11.016-1.53l-0.307,0.306c-1.836-1.53-3.672-2.754-6.119-3.366
			c-0.92-0.306-1.531,0.612-1.531,1.225c-9.18-2.754-18.359-5.814-26.928-10.099c-1.529-0.918-3.061,1.836-1.529,2.448
			c0.305,0,0.305,0.306,0.611,0.306c-2.754,0.307-5.814-0.306-8.873-1.224c-0.613-1.53-1.531-3.06-3.061-4.59
			c-2.143-2.448-6.732-1.836-8.262,0.918l0,0c-1.531-0.306-2.754-0.918-4.285-1.224c-0.918-0.307-5.508-1.225-6.732-1.53
			c0,0,0,0,0-0.306c0,0,0,0-0.305-0.307c-0.613-0.611-1.225-0.918-2.143-0.611c0,0-0.307,0-0.307,0.306
			c-0.611,0.306-0.918,1.224-0.611,1.836c0.307,1.224,1.225,1.224,2.447,1.836c3.061,1.53,6.732,2.448,10.404,3.366
			c-0.918,2.142-1.836,4.284-2.447,6.731c-0.611,0-1.529-0.306-2.143-0.306l0,0c-0.305,0-0.611,0-1.223,0
			c-1.225-0.306-2.449-0.306-3.367-0.612c-1.225-0.306-1.529,1.53-0.611,1.836l0,0c2.141,0.612,4.59,0.918,6.732,1.53
			c-1.836,5.814-3.367,11.322-7.346,15.606c0-0.307-0.305-0.612-0.611-0.918c-1.225-0.918-2.143-1.53-3.365-2.448
			c-0.918-0.612-1.836,0.306-1.836,0.918c-9.486-2.143-18.973-4.896-28.459-7.956c-1.836-0.612-2.754,2.142-0.918,3.06
			c10.404,4.284,21.727,7.345,32.742,9.181c-1.529,1.224-3.672,2.754-6.119,3.672c-9.486-3.061-19.584-4.896-29.377-7.038
			c-0.611,0-0.918,0-1.225,0.306c-0.918-0.918-1.836-1.836-2.754-3.06c1.531,0.306,3.061,0.918,4.59,1.224
			c1.836,0.306,2.449-2.142,0.613-2.754c-2.754-0.918-5.508-1.836-8.262-2.754c-0.918-1.53-1.531-2.754-2.143-4.284
			c0-0.306,0-0.612-0.307-0.918c2.143,0.306,3.979,0.918,6.121,1.225c1.223,0,1.223-1.53,0.305-2.143
			c-2.754-0.918-5.508-2.142-8.262-3.06c-0.611-0.612-1.223-0.918-2.141-1.53l0,0c-0.613-0.306-1.225-0.612-1.836-0.612
			c-0.307,0-0.613,0-0.918,0c-5.814-2.142-11.629-4.284-17.443-7.649c-1.529-0.612-2.447,1.224-1.223,2.142
			c4.283,2.754,9.18,5.508,14.381,7.65c-0.918,0.918-1.529,2.142-1.529,3.672c-4.59-1.53-9.18-3.366-13.771-5.508
			c-1.223-0.612-2.447,1.224-1.223,1.836c4.283,2.142,8.873,4.283,13.463,6.12c-0.918,1.836-1.836,3.672-2.754,5.201
			c-5.201-1.836-10.098-3.365-15.605-4.283c-0.307,0-0.307,0-0.611,0c0.611-0.612,0.918-1.53,0-1.837
			c-10.404-5.508-21.115-9.485-31.213-16.218c-1.225-0.918-2.447,1.225-1.225,2.143c9.182,6.731,20.197,13.77,31.52,16.523h0.305
			c-0.918,0.612-0.918,2.143,0.613,2.448c5.201,1.224,10.098,2.448,14.688,4.284c-3.979,7.344-8.875,13.464-17.748,16.523
			c0-0.306-0.307-0.611-0.918-0.611c-11.629-4.896-23.867-7.956-35.496-13.158c0,0,0,0-0.307,0
			c-0.305-0.612-0.918-1.225-1.223-1.836c0.305-1.836,0.305-3.672,0.305-5.508c1.531,0.611,3.367,1.529,4.896,2.142
			c1.225,0.612,2.143-1.836,0.918-2.448c-2.143-0.918-4.283-1.836-6.119-2.754c-0.613-3.366-1.531-6.731-3.672-10.098
			c-0.307-0.307-0.613-0.612-0.918-0.918c2.447,1.836,5.201,3.365,7.955,4.896c1.529,0.612,3.061-1.224,1.836-2.142
			c-3.979-3.366-8.262-6.12-12.852-9.18c-4.896-3.061-9.486-6.732-14.688-9.181c-0.918-0.306-1.836,0.612-0.918,1.225
			c3.672,3.672,8.262,6.426,12.239,9.485c1.836,1.225,3.367,2.448,5.203,3.672c-1.529-0.611-3.061-0.611-4.285,0
			c-2.141,0-4.283,1.53-4.283,4.59c0,0.307,0,0.612,0,0.919c-3.672-1.53-7.344-3.061-11.016-4.896
			c-1.224-0.612-2.142,1.224-0.918,1.836c1.53,0.612,2.754,1.53,4.284,2.142c-11.934-5.201-24.174-8.873-35.802-15.3
			c-1.836-0.918-3.366,1.836-1.53,2.754c11.322,6.427,24.174,13.771,37.332,15.912c1.53,0.307,2.754-1.836,1.53-2.754
			c1.836,0.918,3.672,1.836,5.508,2.754c-2.142,5.814-4.59,11.628-7.344,17.137c-11.016-6.427-23.868-10.404-35.496-15.301
			c-1.53-0.611-2.448,1.836-0.918,2.448c11.322,5.202,23.256,11.935,35.19,15.606c-0.918,1.529-2.142,3.06-3.366,4.283
			c0-0.611,0-0.918-0.306-1.529c-1.53-1.836-1.224-1.53-3.672-2.448c-0.612-0.306-0.918,0-1.224,0.612
			c-10.404-3.366-20.808-7.038-30.906-11.935c0-0.611-0.306-1.529-0.918-1.836c-6.732-2.754-13.464-5.508-20.196-8.262
			c-0.612-1.53-0.918-3.366-1.836-4.896c-2.448-4.283-7.956-3.365-10.404,0.307c-0.918,0.306-1.224,1.224-0.918,2.142
			c-2.142,6.732-2.754,13.158-5.508,18.972c-11.934-4.896-24.174-9.485-36.108-14.075c-1.836-0.612-3.06,2.447-1.224,3.06
			c11.628,5.202,23.868,9.792,36.108,13.771c-0.918,1.529-1.53,3.06-2.754,4.59c-11.934-5.508-25.398-9.181-37.332-13.771h-0.306
			c0-0.306,0-0.306-0.306-0.611c-3.672-3.366-8.262-5.814-12.24-8.568c-2.448-1.53-5.814-3.366-8.568-5.202
			c0-1.53,0-3.06,0.306-4.59s-0.306-2.754-0.918-3.672c6.732,5.813,14.076,11.628,21.726,14.688c1.224,0.612,2.448-1.529,1.53-2.447
			c-4.284-3.366-9.18-6.12-13.77-9.181c-5.508-3.672-10.71-7.956-15.912-12.24c-1.224-0.918-3.06,0.612-1.836,1.837
			c1.224,1.224,2.448,2.447,3.978,3.672c-5.202-3.672-11.628-6.12-17.136-8.874c-4.896-2.448-9.792-5.202-14.382-7.956
			c1.224-1.836,1.224-4.59-0.612-5.814c0.306,0,0.306-0.306,0.612-0.611c8.262,4.283,16.83,8.567,25.704,11.934
			c1.53,0.612,2.754-2.142,1.224-2.754c-8.262-3.979-16.524-8.262-24.48-12.546c0.306-0.612,0.612-1.53,0.612-2.143
			c0-1.224,0.306-2.142,0.306-3.365c8.262,4.283,16.524,8.874,24.786,12.852c1.53,0.918,2.754-0.918,1.836-2.142
			c9.486,6.426,19.278,14.382,30.294,18.054c1.224,0.306,2.448-1.53,1.224-2.142c-9.18-7.345-21.114-12.547-31.212-18.973
			c-1.53-0.918-2.754,0.918-1.53,2.143c-7.956-5.202-16.218-9.792-25.092-13.771c0.306-2.142,0.306-4.284,0.612-6.426
			c7.65,4.59,15.3,8.874,23.562,12.24c1.53,0.611,2.448-1.836,1.224-2.754c-7.65-5.202-15.912-9.486-24.174-13.771
			c0.306-3.978,0.918-7.956,1.224-11.628c5.814,3.672,11.934,7.344,18.36,10.098c2.142,0.918,4.284-2.142,2.142-3.366
			c-6.426-3.978-13.158-7.65-19.584-11.628c0.306-1.836,0.612-3.978,0.918-5.814c6.12,4.284,12.546,8.262,19.584,10.71
			c1.836,0.612,2.754-1.836,1.224-3.06c-6.426-4.59-13.464-8.262-19.89-12.546c0.306-1.224,0.306-2.448,0.612-3.672
			c5.814,3.672,11.628,7.038,17.748,10.098c2.448,1.224,4.59-2.142,2.142-3.672c-6.12-3.978-12.546-7.65-18.972-11.628
			c0.612-2.754,1.224-5.202,1.836-7.956c0.306,0.306,0.918,0.612,1.224,0.918c4.896,3.06,10.404,7.038,16.218,7.956
			c1.53,0.306,3.366-1.836,1.836-3.06c-3.978-3.366-9.18-5.202-13.77-7.956c-1.53-0.918-2.754-2.142-4.284-3.06
			c0.612-2.142,1.224-4.284,1.836-6.426c5.508,3.672,11.322,7.038,17.442,8.568c2.142,0.612,3.06-2.142,1.53-3.366
			c-4.59-3.366-10.098-5.814-15.3-8.874c-0.918-0.612-1.53-0.918-2.448-1.53c0.918-2.754,1.836-5.508,2.754-8.262
			c5.202,3.366,10.71,6.426,16.524,7.038c2.142,0.306,3.366-2.142,1.53-3.672c-3.978-2.754-8.568-4.284-12.852-6.732
			c-1.224-0.612-2.142-1.53-3.06-2.142c0.918-2.142,1.836-4.59,2.754-6.732c4.284,2.754,8.568,5.202,13.464,6.732
			c1.836,0.612,3.366-2.142,1.836-3.366c-4.284-3.366-8.568-6.12-13.158-8.874c0.918-2.142,2.142-4.284,3.06-6.12
			c2.754,1.836,5.814,3.366,9.18,3.672c0.612,0,0.918,0,1.224-0.306c7.344,6.426,15.606,13.158,24.786,16.218
			c1.836,0.612,2.448-1.836,1.224-2.754c-7.65-5.814-16.524-10.098-24.174-16.218c-0.612-0.306-0.918-0.306-1.53-0.306l-0.306-0.306
			c-2.448-1.836-4.896-3.366-7.344-4.896c0.612-1.224,1.224-2.142,2.142-3.06c0.612,0.612,1.53,1.224,2.142,1.53
			c2.142,1.224,4.284,2.142,6.12,0c0.306-0.612,0.612-1.224,0.612-1.836c6.732,5.508,14.076,10.71,22.032,14.382
			c1.53,0.612,3.366,0,3.366-1.836c0-0.612,0-1.53,0-2.142c0-1.836-2.142-2.142-3.366-0.918c-7.038-3.672-13.77-7.65-19.89-12.546
			c-1.53-1.224-3.672,0-3.672,1.53c-0.918-0.306-1.836-0.612-2.448,0.612c0.918-1.53-0.306-1.53-1.836-2.754
			c0,0-0.306,0-0.306-0.306c0.918-1.53,2.142-3.06,3.366-4.59c1.224,0.612,2.142,1.53,3.672,2.142
			c2.142,0.918,4.896-1.53,2.754-3.672c-0.306-0.306-0.918-0.612-1.224-0.918c3.978,2.142,7.65,4.59,11.628,6.732
			c3.672,2.142,7.344,5.202,11.628,5.508c0.918,0,1.53-0.612,1.836-1.53c0-0.306,0-0.306,0-0.612
			c0.306-0.918-0.306-1.53-0.918-2.142l-0.306-0.306c-0.612-0.612-1.53-0.306-1.836,0.306c-0.918-1.53-10.404-6.426-11.016-6.732
			c-3.672-1.836-7.038-3.978-10.71-5.814c1.53-1.836,2.754-3.366,4.284-4.896c6.732,4.59,14.382,8.874,22.032,9.792
			c1.53,0.306,1.836-1.836,0.612-2.754c-3.978-3.06-8.874-4.59-13.464-6.732c-2.142-1.224-4.284-2.448-6.426-3.672
			c0.918-0.918,2.142-1.836,3.06-2.754c5.508,3.06,11.016,6.12,16.83,7.344c1.53,0.306,2.754-1.53,1.53-2.754
			c-4.284-3.672-9.486-6.12-14.688-8.262c1.224-0.918,2.142-1.836,3.366-2.754c2.448,1.224,5.202,2.448,7.65,3.672
			c2.754,1.224,5.508,3.06,8.568,3.978c-0.306,0.918-0.306,1.836,0.918,2.448c10.098,6.426,20.808,13.464,32.436,16.83
			c1.836,0.612,2.754-1.836,1.224-3.06c-9.486-5.814-19.584-10.404-29.07-16.218c0.306-0.612,0.306-1.224-0.306-1.836
			c-3.366-2.754-7.65-4.284-11.628-5.814c-2.142-0.918-4.284-1.836-6.12-2.754c1.53-0.918,3.06-2.142,4.284-3.06
			c5.202,3.978,10.71,7.65,16.524,9.792c0,0.918,0.306,2.142,1.224,2.448c3.06,1.224,5.814,2.754,8.874,4.284
			c5.202,3.672,10.71,7.038,16.218,10.098c-0.918,0.918-1.224,2.754,0.306,3.672c10.098,6.732,20.196,14.076,30.906,19.89
			c0.612,0.306,1.224,0.306,1.836,0.306c7.344,5.508,16.218,10.404,25.092,11.016c1.836,0,2.448-2.448,0.918-3.366
			c-9.18-4.896-18.36-7.956-26.622-14.382c-0.918-0.612-1.836-0.612-2.754-0.306c-5.202-3.672-10.404-7.038-15.912-10.404
			c6.426,2.754,13.158,4.59,19.89,6.12c0.612,0.306,1.224,0.612,1.836,0.612c-0.306,1.224,0,3.06,1.836,3.672
			c8.568,3.06,16.83,6.426,25.398,8.874c2.754,0.612,4.59-3.366,1.836-4.59c-5.508-2.448-11.016-4.59-16.83-6.426
			c0.612,0,1.224,0.306,1.836,0.306c8.874,0.612,17.748,0,26.622-1.53c2.449,1.224,5.203,2.448,7.65,3.672
			c3.061,1.53,7.955,5.508,11.322,3.978c0.918-0.306,1.529-1.224,1.529-2.142v-0.612c0-1.836-1.836-2.448-3.365-1.224
			c0,0-6.426-3.366-10.098-5.202c4.895-1.224,9.791-2.754,14.688-4.284c8.262,6.426,17.135,12.546,26.621,16.218
			c2.143,0.918,3.672-2.142,2.143-3.672c-0.918-0.612-1.836-1.53-2.754-2.142c-0.307-0.306-0.918-0.306-1.225-0.306
			c-6.119-3.978-12.545-7.956-18.971-11.934c0.611-0.306,1.223-0.612,1.529-0.918c5.201,2.448,10.098,4.896,15.301,7.038
			c3.365,1.53,7.344,3.978,10.709,1.836c0.611-0.306,0.611-0.612,0.611-1.224c7.346,4.59,15.607,8.568,24.176,10.098
			c2.141,0.306,3.059-2.448,0.918-3.366c-9.182-3.366-17.748-6.732-26.316-11.628c-1.836-1.224-3.672,1.836-1.836,3.06l0,0
			c-3.061-0.306-7.957-3.366-10.404-4.284c-2.754-1.224-5.814-2.448-8.568-3.672c2.754-1.224,5.508-2.754,7.957-4.284
			c3.977,1.224,7.648,2.448,11.627,2.448c0.918,0,1.529-0.612,1.836-1.224c7.65,4.284,15.605,8.568,23.562,12.24
			c2.754,1.224,5.201-2.448,2.447-4.284c-1.836-0.918-3.365-2.142-5.201-3.366c-0.613-0.306-1.225-0.306-1.836,0
			c-5.814-2.754-11.629-5.814-17.137-8.874c-1.529-0.918-2.754,0-3.061,1.224c0,0,0-0.306-0.305-0.306
			c-1.836-0.612-3.979-1.224-5.814-1.836c2.754-1.836,5.508-3.672,7.955-5.508c7.039,3.06,14.689,6.12,22.033,6.426
			c2.447,0.306,2.447-3.06,0.611-3.672c-4.59-1.836-9.791-2.754-14.381-4.284c-1.225-0.306-2.449-0.918-3.672-1.53
			c1.836-1.53,3.672-3.06,5.508-4.59c4.59,2.142,9.18,3.978,13.77,5.508c-0.918,0.612-1.225,1.836,0,2.754
			c7.344,7.038,15.912,13.77,25.092,17.748c2.143,0.918,3.672-1.836,1.836-3.06c-7.955-5.508-15.912-10.404-23.256-17.136
			c1.225-0.612,2.143-2.142,1.225-3.672c-0.918-1.53-1.836-2.448-3.367-3.366c-0.918-0.306-1.836,0-2.141,0.612
			c-2.754-1.224-5.51-2.142-8.264-3.366c1.225-1.224,2.449-2.448,3.672-3.672c2.143,0.612,4.285,1.224,6.732,1.53
			c2.449,0.306,2.449-3.06,0.613-3.672c-1.225-0.612-2.449-0.918-3.672-1.224c0.918-0.918,1.836-2.142,2.754-3.06
			c1.529,0.612,3.059,1.53,4.895,1.836c0.918,0.306,1.531,0,2.143-0.612c0,0.612,0.307,0.918,0.918,1.224
			c6.732,4.59,13.77,10.098,21.727,11.934c2.141,0.612,3.365-2.142,1.529-3.366c-6.732-4.59-14.381-7.65-21.113-12.24
			c-0.918-0.612-1.836-0.306-2.449,0.306c0-0.612-0.305-0.918-0.918-1.224c-0.305-0.306-0.918-0.306-1.223-0.612
			c2.141-0.306,4.283-0.306,6.426-0.306c6.732,4.896,14.994,9.486,22.645,9.792c0.918,0,1.529-0.612,1.836-1.224
			c1.223,0.918,2.447,1.836,3.977,2.754c-0.918-0.612-2.141-0.918-3.059-1.53c-2.143-1.224-4.285,2.142-1.836,3.366
			c6.426,3.672,12.852,7.344,19.889,10.404c1.836,1.836,3.672,3.672,5.508,5.508c5.814,6.426,11.018,13.158,15.607,20.196
			c-3.979-1.53-7.957-3.06-11.936-4.59c-1.223-0.612-2.754,0.612-2.754,2.142c-7.648-4.896-17.748-7.65-26.01-11.016
			c-2.141-0.918-3.977,3.06-1.836,3.978c8.875,3.672,18.361,9.18,27.541,11.016c0.918,0.306,1.529-0.306,2.141-0.918
			c0.307,0.306,0.918,0.612,1.531,0.918c0.611,0.306,1.529,0.306,2.141,0c4.592,2.142,9.182,3.978,13.465,5.814
			c1.529,2.448,3.061,4.59,4.283,7.038c-2.754-0.918-5.508-1.836-8.262-2.754s-3.977,3.672-1.223,4.284
			c4.59,1.224,8.566,3.06,12.852,4.896c0.918,2.142,2.143,3.978,3.061,6.12c0,0.306,0.305,0.612,0.305,0.612
			c-7.344-3.366-14.994-6.12-22.643-8.874c-2.143-0.612-2.756,2.448-0.92,3.06c8.568,3.366,17.137,7.344,25.705,11.322
			c0.611,1.53,1.225,3.366,1.836,4.896c-7.65-4.284-15.912-8.262-23.256-12.24c-2.447-1.53-4.59,2.448-2.143,3.978
			c9.18,5.202,18.361,11.628,27.846,16.524c0.613,1.836,0.918,3.366,1.531,5.202c-8.568-4.896-17.748-9.18-26.623-12.852
			c-2.141-0.918-3.672,2.142-1.836,3.06c10.404,4.59,20.197,10.098,29.682,15.912c0.613,2.754,1.225,5.508,1.531,8.568
			c-10.711-5.202-21.727-10.098-32.131-15.606c-2.447-1.224-4.896,2.448-2.143,3.672c11.629,6.12,23.258,12.546,35.191,17.442
			c0.305,2.448,0.611,5.202,0.918,7.65c-11.016-4.59-22.033-9.18-32.742-14.076c-1.529-0.612-2.754,1.53-1.225,2.142
			c11.322,5.814,22.645,11.322,34.578,16.218c0,2.142,0.307,4.284,0.611,6.12c-0.918-0.612-1.836-1.53-3.059-2.142
			c-1.531-0.918-2.754,0.918-1.836,2.142c-10.711-4.59-21.42-9.18-32.131-13.77c0.613-0.918,0.918-2.142-0.307-2.754
			c-0.611-0.306-1.529-0.918-2.141-1.224h-0.307c-8.568-4.59-18.055-7.65-27.234-10.098c-2.447-0.612-3.672,3.06-1.223,3.978
			c10.098,3.06,19.584,7.344,29.682,10.71c-0.613,0.918-0.918,2.142,0.305,2.754c1.531,0.612,3.367,1.53,4.896,2.142
			c-10.709-1.224-20.195-3.366-29.375-9.792c-2.449-1.53-4.59,2.448-2.449,3.978c9.486,6.426,21.115,10.71,32.742,9.486
			c1.531-0.306,1.836-1.53,1.531-2.754c10.402,4.896,21.113,9.486,31.518,14.076c0,2.448,0,4.59,0,7.038
			c-8.568-3.672-17.441-7.038-26.316-10.71c-1.225-0.612-2.447,1.836-0.918,2.448c8.873,3.978,18.055,8.262,27.234,12.24
			c0,0.918,0,1.53,0,2.448c-1.225-0.306-2.143,1.225-1.225,2.143c0.307,0.306,0.307,0.306,0.611,0.611
			c-10.402-4.59-20.807-9.18-31.211-13.77c-1.836-0.918-3.365,1.836-1.529,2.754c-3.672-0.918-9.793-4.284-11.936-4.896
			c-5.508-2.142-10.709-4.284-16.217-6.426c-2.449-1.224-4.896,2.754-2.143,3.672c6.119,2.448,12.24,5.202,18.359,7.344
			c3.979,1.53,9.793,4.59,14.383,3.671c0.611,0,0.918-0.611,0.918-0.917c0-0.306,0-0.306,0-0.612
			c9.791,4.59,19.584,9.18,29.375,13.77c0,0.918,0,2.143-0.305,3.061c-9.18-3.672-18.361-7.956-26.928-12.853
			c-1.531-0.918-2.754,1.53-1.531,2.448c9.18,5.508,18.973,10.404,28.764,14.382c1.225,2.448,4.285,3.672,7.039,3.061
			c0.307,0,0.307,0,0.611,0.306c1.531,2.143,3.979,3.366,6.732,3.366c0,0.306,0.307,0.306,0.611,0.612
			c12.547,5.813,26.012,12.852,39.168,16.523C525.973,334.346,525.668,336.487,525.055,338.323z M490.477,314.455
			c0.307-0.306,0.918-0.306,1.225-0.611c1.529-1.53,3.365-2.448,5.201-3.061c8.568,5.202,18.361,10.404,28.152,13.464
			c0.613,1.53,0.918,3.061,1.225,4.896C514.958,323.023,502.106,319.045,490.477,314.455z"/>
		<path d="M428.971,171.247c-7.344-3.978-14.688-7.038-22.031-11.322c-1.836-1.224-3.672,1.836-1.836,3.06
			c7.037,4.59,14.381,9.18,22.338,11.322C429.584,174.613,430.807,172.165,428.971,171.247z"/>
		<path d="M491.09,330.062c-4.896-2.143-10.404-3.366-15.607-5.508c-1.836-0.612-17.441-7.038-16.83-9.181
			c0.613-1.836-2.141-2.447-2.754-0.918c-1.529,4.59,7.957,7.956,10.711,9.486c7.037,3.672,15.605,7.956,23.562,8.568
			C491.702,332.815,492.313,330.673,491.09,330.062z"/>
		<path d="M486.194,320.575c-11.629-5.202-23.562-9.486-34.885-15.3c-1.529-0.918-3.059,1.53-1.529,2.448
			c11.016,6.12,22.949,12.546,35.189,15.912C486.805,323.941,488.03,321.493,486.194,320.575z"/>
	</g>
</g>
<g>
</g>
<g>
</g>
<g>
</g>
<g>
</g>
<g>
</g>
<g>
</g>
<g>
</g>
<g>
</g>
<g>
</g>
<g>
</g>
<g>
</g>
<g>
</g>
<g>
</g>
<g>
</g>
<g>
</g>
</svg>
